# xmcd
# 
# Track frame offsets:
#     150
#     12410
#     27430
#     39385
#     56557
#     73235
#     88540
#     104997
#     120155
#     137190
#     150475
#     168005
#     185510
#     200355
# 
# Disc length: 2887
# 
# Revision: 3
# Processed by: cddbd v1.5.2PL0 Copyright (c) Steve Scherf et al.
# Submitted via: BonkEnc v1.0.6
# 
DISCID=bb0b450e
DTITLE=Genildo e Ginaldo - Genildo e Ginaldo
DYEAR=2000
DGENRE=Folk
TTITLE0=Meu xamego, meu xodó (Ai Ai Ui Ui)
TTITLE1=Deus me livre
TTITLE2=Mata o velho
TTITLE3=Verdade
TTITLE4=Baby
TTITLE5=O biriteiro
TTITLE6=Tentando te esquecer
TTITLE7=Vou ficar na sua cola
TTITLE8=Mulher coroa
TTITLE9=É hoje que o bicho pega
TTITLE10=Boêmio sonhador
TTITLE11=Pot-pourri (Lua solidão e Amor verdadeiro)
TTITLE12=Viajante solitário (O comboio)
TTITLE13=Até o garçom chorou
EXTD=ID3G:  80 YEAR: 1996
EXTT0=
EXTT1=
EXTT2=
EXTT3=
EXTT4=
EXTT5=
EXTT6=
EXTT7=
EXTT8=
EXTT9=
EXTT10=
EXTT11=
EXTT12=
EXTT13=
PLAYORDER=
